<mxfile host="app.diagrams.net" modified="2024-04-03T05:57:12.356Z" agent="Mozilla/5.0 (Macintosh; Intel Mac OS X 10_15_7) AppleWebKit/537.36 (KHTML, like Gecko) Chrome/123.0.0.0 Safari/537.36" etag="WRfM-12MK7gUi2eTnf3c" version="24.2.1" type="github">
  <diagram name="第 1 页" id="h30cmg2fMGcifBOGWBoc">
    <mxGraphModel dx="849" dy="906" grid="1" gridSize="10" guides="1" tooltips="1" connect="1" arrows="1" fold="1" page="1" pageScale="1" pageWidth="827" pageHeight="1169" math="0" shadow="0">
      <root>
        <mxCell id="0" />
        <mxCell id="1" parent="0" />
        <mxCell id="jiSc6JVHoA4VfYD3I5mG-1" value="" style="shape=image;verticalLabelPosition=bottom;labelBackgroundColor=default;verticalAlign=top;aspect=fixed;imageAspect=0;image=data:image/png,iVBORw0KGgoAAAANSUhEUgAAAfEAAAFnCAYAAAC2DXAjAAAKrGlDQ1BJQ0MgUHJvZmlsZQAASImVlwdUU+kSgP97bzoJLSF0CL0J0gkgJfRQBOkgKiEJEEqMgaBiQ2RxBdeCighWcJWi4FoAWQsiioVFQAX7giwC6rpYsKHyLnAI7r7z3jtvcibzZe78M/Pf8//nTACg0DgiURosD0C6MFMc6uvBiI6JZeCHAQRgQAQaAOZwM0SskJBAgMqM/bu870GjUbltPpnr35//V1Hg8TO4AEAhKCfwMrjpKJ9G9RVXJM4EADmM+vWWZ4om+RrKNDHaIMqPJjlpmkcnOWGKMZipmPBQT5RVACCQORxxEgBkfdTPyOImoXnIXihbCnkCIcrob+Canr6UhzJaFxijMSKUJ/MzE77Lk/S3nAnSnBxOkpSn9zIlBC9BhiiNs/L/fB3/W9LTJDM1DFElJ4v9QlFLR9/ZvdSlAVIWJswPnmEBbyp+ipMlfhEzzM3wjJ1hHscrQLo2bX7gDCcKfNjSPJns8BnmZ3iHzbB4aai0VqLYkzXDHPFsXUlqhNSfzGdL82cnh0fNcJYgcv4MZ6SGBczGeEr9YkmotH++0Ndjtq6PdO/pGd/tV8CWrs1MDveT7p0z2z9fyJrNmREt7Y3H9/KejYmQxosyPaS1RGkh0nh+mq/Un5EVJl2biR7I2bUh0neYwvEPmWHgBbxBIPphgAhgDWyBFfodBEAmf8XkGQWeS0UrxYKk5EwGC71lfAZbyLWYw7C2tLYFYPLOTh+Jt/em7iJEJ8z6RGh+R/TMIxWzvgQ1ABrQc6RKnPXpHwVALhqA+hyuRJw17Zu8TgALSEAO0IAq0AJ6wBiYo53ZA2fgjnbsD4JBOIgBiwEXJIN0IAbLwWqwHuSDQrAN7AKl4ACoAJXgODgJGsA5cAlcBTdBJ7gLHoI+MAhegFHwHoxDEISHKBAVUoW0IQPIDLKGmJAr5A0FQqFQDBQPJUFCSAKthjZAhVARVAodgqqgX6Cz0CXoOtQF3Yf6oRHoDfQZRmAyTIM1YUN4LsyEWXAAHA4vgpPgZXA2nAdvgUvgcvgYXA9fgm/Cd+E++AU8hgBEBqEjOog5wkQ8kWAkFklExMhapAApRsqRWqQJaUNuI33IS+QTBoehYhgYc4wzxg8TgeFilmHWYjZjSjGVmHpMK+Y2ph8zivmGpWA1sGZYJywbG41Nwi7H5mOLsUewZ7BXsHexg9j3OByOjjPCOeD8cDG4FNwq3GbcPlwdrhnXhRvAjeHxeFW8Gd4FH4zn4DPx+fg9+GP4i/hu/CD+I0GGoE2wJvgQYglCQi6hmFBNuEDoJgwRxonyRAOiEzGYyCOuJG4lHiY2EW8RB4njJAWSEcmFFE5KIa0nlZBqSVdIj0hvZWRkdGUcZRbICGRyZEpkTshck+mX+URWJJuSPclxZAl5C/kouZl8n/yWQqEYUtwpsZRMyhZKFeUy5QnloyxV1kKWLcuTXSdbJlsv2y37So4oZyDHklssly1XLHdK7pbcS3mivKG8pzxHfq18mfxZ+V75MQWqgpVCsEK6wmaFaoXrCsOKeEVDRW9FnmKeYoXiZcUBKkLVo3pSudQN1MPUK9RBGo5mRGPTUmiFtOO0DtqokqKSrVKk0gqlMqXzSn10hG5IZ9PT6FvpJ+k99M/KmsosZb7yJuVa5W7lDyrqKu4qfJUClTqVuyqfVRmq3qqpqttVG1Qfq2HUTNUWqC1X2692Re2lOk3dWZ2rXqB+Uv2BBqxhqhGqsUqjQqNdY0xTS9NXU6S5R/Oy5kstupa7VorWTq0LWiPaVG1XbYH2Tu2L2s8ZSgwWI41RwmhljOpo6PjpSHQO6XTojOsa6Ubo5urW6T7WI+kx9RL1duq16I3qa+sH6a/Wr9F/YEA0YBokG+w2aDP4YGhkGGW40bDBcNhIxYhtlG1UY/TImGLsZrzMuNz4jgnOhGmSarLPpNMUNrUzTTYtM71lBpvZmwnM9pl1zcHOcZwjnFM+p9ecbM4yzzKvMe+3oFsEWuRaNFi8mqs/N3bu9rltc79Z2lmmWR62fGilaOVvlWvVZPXG2tSaa11mfceGYuNjs86m0ea1rZkt33a/7T07ql2Q3Ua7Fruv9g72Yvta+xEHfYd4h70OvUwaM4S5mXnNEevo4bjO8ZzjJyd7p0ynk05/OZs7pzpXOw/PM5rHn3d43oCLrgvH5ZBLnyvDNd71oGufm44bx63c7am7njvP/Yj7EMuElcI6xnrlYekh9jjj8cHTyXONZ7MX4uXrVeDV4a3oHeFd6v3ER9cnyafGZ9TXzneVb7Mf1i/Ab7tfL1uTzWVXsUf9HfzX+LcGkAPCAkoDngaaBooDm4LgIP+gHUGP5hvMF85vCAbB7OAdwY9DjEKWhfy6ALcgZEHZgmehVqGrQ9vCqGFLwqrD3od7hG8NfxhhHCGJaImUi4yLrIr8EOUVVRTVFz03ek30zRi1GEFMYyw+NjL2SOzYQu+FuxYOxtnF5cf1LDJatGLR9cVqi9MWn18it4Sz5FQ8Nj4qvjr+CyeYU84ZS2An7E0Y5Xpyd3Nf8Nx5O3kjfBd+EX8o0SWxKHE4ySVpR9JIsltycfJLgaegVPA6xS/lQMqH1ODUo6kTaVFpdemE9Pj0s0JFYaqwdanW0hVLu0RmonxR3zKnZbuWjYoDxEcyoIxFGY2ZNHQ4apcYS36Q9Ge5ZpVlfVweufzUCoUVwhXtK01Xblo5lO2T/fMqzCruqpbVOqvXr+5fw1pzaC20NmFtyzq9dXnrBnN8cyrXk9anrv8t1zK3KPfdhqgNTXmaeTl5Az/4/lCTL5svzu/d6LzxwI+YHwU/dmyy2bRn07cCXsGNQsvC4sIvm7mbb/xk9VPJTxNbErd0bLXfun8bbptwW892t+2VRQpF2UUDO4J21O9k7CzY+W7Xkl3Xi22LD+wm7Zbs7isJLGnco79n254vpcmld8s8yur2auzdtPfDPt6+7v3u+2sPaB4oPPD5oODgvUO+h+rLDcuLK3AVWRXPDkcebvuZ+XPVEbUjhUe+HhUe7asMrWytcqiqqtao3loD10hqRo7FHes87nW8sda89lAdva7wBDghOfH8l/hfek4GnGw5xTxVe9rg9N4z1DMF9VD9yvrRhuSGvsaYxq6z/mdbmpybzvxq8evRczrnys4rnd96gXQh78LExeyLY82i5peXki4NtCxpeXg5+vKd1gWtHVcCrly76nP1chur7eI1l2vnrjtdP3uDeaPhpv3N+na79jO/2f12psO+o/6Ww63GTsfOpq55XRe63bov3fa6ffUO+87Nu/PvdvVE9Nzrjevtu8e7N3w/7f7rB1kPxh/mPMI+Kngs/7j4icaT8t9Nfq/rs+873+/V3/407OnDAe7Aiz8y/vgymPeM8qx4SHuoath6+NyIz0jn84XPB1+IXoy/zP9T4c+9r4xfnf7L/a/20ejRwdfi1xNvNr9VfXv0ne27lrGQsSfv09+Pfyj4qPqx8hPzU9vnqM9D48u/4L+UfDX52vQt4NujifSJCRFHzJkaBRBU4cREAN6gcwIlBgBqJwCkhdMz9ZRA0/8Dpgj8J56eu6fEHoCKZgDCcwAIRO0e1BqiKucOQAiq4e4AtrGR6sz8OzWrT4r8MQAOZlva2wd2d8aBf8r0HP9d3/+0QJr1b/ZfHxkEUCDBUWIAAAA4ZVhJZk1NACoAAAAIAAGHaQAEAAAAAQAAABoAAAAAAAKgAgAEAAAAAQAAAfGgAwAEAAAAAQAAAWcAAAAANq5d9gAAHM9JREFUeAHt3MGS4jqyAFDXxNwVP8CW//8xlmxgcyHqdXaEhlCoDRld9sMJpzYqy2o5+6SYbN/3yK9///33e/LzI4Hb7TZdLpfpdDpNh8Ph6V6/zH+v+eeffx6uXXpdPOx4PE77/f7/9bnZv4f4/pwWfj9z4cevCbzj//79p/3ljAQIECBAgEAtAUW8Vr5ES4AAAQIE/iegiP+Pwi8ECBAgQKCWwH9rhVsj2vZ/g5uL9nq9zt3q5pdeF5t/f39P4uuYp6wzv96tXfFrEv2Ydcmui919fnvjuPp0P2/i45kwQ4AAAQIESgh4E18hTc/+v87bI1+x7uvra3rFc+PvnHmu+NrpGEd+o0nMZFyy65y/Pxvz+5nLmn7exOdz4w4BAgQIENi0gCK+6fQIjgABAgQIzAso4vM27hAgQIAAgU0LKOKbTo/gCBAgQIDAvIAiPm/jDgECBAgQ2LSAIr7p9AiOAAECBAjMCyji8zbuECBAgACBTQv4nvgK6dERrUf99I5Kvcb9KuuSXRc76+h1922/8WsS/Zh1ya6L3Z2/3jiu1vbzJj6amyFAgAABAiUEvImvkKYlO0hFeEvupyPVfMIzzvz4NYHMeYm1S65z/pr+OGac39HPm/h4FswQIECAAIESAop4iTQJkgABAgQIjAKK+GhihgABAgQIlBBQxEukSZAECBAgQGAUUMRHEzMECBAgQKCEgCJeIk2CJECAAAECo4AiPpqYIUCAAAECJQR8T3yFNOnY1qOu3bGof9r9Kvvc7LrYWUequ2/7jV+T6MesS3Zd7O789cZx9el+3sTHM2GGAAECBAiUEPAmvkKaMp2D4rGvWPeOHYuepXBJZ37z2hlnfvyaQOa8xNol173j+fMm3k6UkQABAgQIFBNQxIslTLgECBAgQKAJKOJNwkiAAAECBIoJKOLFEiZcAgQIECDQBBTxJmEkQIAAAQLFBBTxYgkTLgECBAgQaAKKeJMwEiBAgACBYgKKeLGECZcAAQIECDSBr18tQr/bhfHvBG6323S5XKbT6TQdDofpeDw+3ChaJ8ZPNB549LP0unjW+Xyedrvdo8f+bu0YC8Q3MvEbTbLnNP4kP37Z87L0unc9fzq2jZ+pH8/s9/uHe7Te6s86ES29LoKKf2CIr09P1plf79au+DWJfsy6ZNfF7j6/vXFcfbqf/5w+ngkzBAgQIECghIAiXiJNgiRAgAABAqOAIj6amCFAgAABAiUEFPESaRIkAQIECBAYBRTx0cQMAQIECBAoIaCIl0iTIAkQIECAwCigiI8mZggQIECAQAkB3xNfIU3te4tzW1+v17lb3fzS62LzaKAgvo55yjrz693aFb8m0Y9Zl+y62N3ntzeOq0/38yY+ngkzBAgQIECghIA38RXS9KwTW3vkK9ZFK9VXPDf+zpnniq+djnHkN5rETMYlu875+7Mxv5+5rOnnTXw+N+4QIECAAIFNCyjim06P4AgQIECAwLyAIj5v4w4BAgQIENi0gCK+6fQIjgABAgQIzAso4vM27hAgQIAAgU0LKOKbTo/gCBAgQIDAvIAiPm/jDgECBAgQ2LSA74mvkB4d0XrUT++o1Gvcr7Iu2XWxs45ed9/2G78m0Y9Zl+y62N35643jam0/b+KjuRkCBAgQIFBCwJv4CmlasoNUhLfkfjpSzSc848yPXxPInJdYu+Q656/pj2PG+R39vImPZ8EMAQIECBAoIaCIl0iTIAkQIECAwCigiI8mZggQIECAQAkBRbxEmgRJgAABAgRGAUV8NDFDgAABAgRKCCjiJdIkSAIECBAgMAoo4qOJGQIECBAgUELA98RXSJOObT3q2h2L+qfdr7LPza6LnXWkuvu23/g1iX7MumTXxe7OX28cV5/u5018PBNmCBAgQIBACQFv4iukKdM5KB77inXv2LHoWQqXdOY3r51x5sevCWTOS6xdct07nj9v4u1EGQkQIECAQDEBRbxYwoRLgAABAgSagCLeJIwECBAgQKCYgCJeLGHCJUCAAAECTUARbxJGAgQIECBQTEARL5Yw4RIgQIAAgSagiDcJIwECBAgQKCagiBdLmHAJECBAgEAT+PrVIvS7XRj/TuB2u02Xy2U6nU7T4XCYjsfjw42idWL8ROOBRz9Lr4tnnc/nabfbPXrs79aOsUB8IxO/0SR7TuNP8uOXPS9Lr3vX86dj2/iZ+vHMfr9/uEfrrf6sE9HS6yKo+AeG+Pr0ZJ359W7til+T6MesS3Zd7O7z2xvH1af7+c/p45kwQ4AAAQIESggo4iXSJEgCBAgQIDAKKOKjiRkCBAgQIFBCQBEvkSZBEiBAgACBUUARH03MECBAgACBEgKKeIk0CZIAAQIECIwCivhoYoYAAQIECJQQ8D3xFdLUvrc4t/X1ep271c0vvS42jwYK4uuYp6wzv96tXfFrEv2Ydcmui919fnvjuPp0P2/i45kwQ4AAAQIESgh4E18hTc86sbVHvmJdtFJ9xXPj75x5rvja6RhHfqNJzGRcsuucvz8b8/uZy5p+3sTnc+MOAQIECBDYtIAivun0CI4AAQIECMwLKOLzNu4QIECAAIFNCyjim06P4AgQIECAwLyAIj5v4w4BAgQIENi0gCK+6fQIjgABAgQIzAso4vM27hAgQIAAgU0L+J74CunREa1H/fSOSr3G/Srrkl0XO+vodfdtv/FrEv2Ydcmui92dv944rtb28yY+mpshQIAAAQIlBLyJr5CmJTtIRXhL7qcj1XzCM878+DWBzHmJtUuuc/6a/jhmnN/Rz5v4eBbMECBAgACBEgKKeIk0CZIAAQIECIwCivhoYoYAAQIECJQQUMRLpEmQBAgQIEBgFFDERxMzBAgQIECghIAiXiJNgiRAgAABAqOAIj6amCFAgAABAiUEfE98hTTp2Najrt2xqH/a/Sr73Oy62FlHqrtv+41fk+jHrEt2Xezu/PXGcfXpft7ExzNhhgABAgQIlBDwJr5CmjKdg+Kxr1j3jh2LnqVwSWd+89oZZ378mkDmvMTaJde94/nzJt5OlJEAAQIECBQTUMSLJUy4BAgQIECgCSjiTcJIgAABAgSKCSjixRImXAIECBAg0AQU8SZhJECAAAECxQQU8WIJEy4BAgQIEGgCiniTMBIgQIAAgWICinixhAmXAAECBAg0ga9fLUK/24Xx7wRut9t0uVym0+k0HQ6H6Xg8PtwoWifGTzQeePSz9Lp41vl8nna73aPH/m7tGAvENzLxG02y5zT+JD9+2fOy9Lp3PX86to2fqR/P7Pf7h3u03urPOhEtvS6Cin9giK9PT9aZX+/Wrvg1iX7MumTXxe4+v71xXH26n/+cPp4JMwQIECBAoISAIl4iTYIkQIAAAQKjgCI+mpghQIAAAQIlBBTxEmkSJAECBAgQGAUU8dHEDAECBAgQKCGgiJdIkyAJECBAgMAooIiPJmYIECBAgEAJAd8TXyFN7XuLc1tfr9e5W9380uti82igIL6Oeco68+vd2hW/JtGPWZfsutjd57c3jqtP9/MmPp4JMwQIECBAoISAN/EV0vSsE1t75CvWRSvVVzw3/s6Z54qvnY5x5DeaxEzGJbvO+fuzMb+fuazp5018PjfuECBAgACBTQso4ptOj+AIECBAgMC8gCI+b+MOAQIECBDYtIAivun0CI4AAQIECMwLKOLzNu4QIECAAIFNCyjim06P4AgQIECAwLyAIj5v4w4BAgQIENi0gO+Jr5AeHdF61E/vqNRr3K+yLtl1sbOOXnff9hu/JtGPWZfsutjd+euN42ptP2/io7kZAgQIECBQQsCb+AppWrKDVIS35H46Us0nPOPMj18TyJyXWLvkOuev6Y9jxvkd/byJj2fBDAECBAgQKCGgiJdIkyAJECBAgMAooIiPJmYIECBAgEAJAUW8RJoESYAAAQIERgFFfDQxQ4AAAQIESggo4iXSJEgCBAgQIDAKKOKjiRkCBAgQIFBCwPfEV0iTjm096todi/qn3a+yz82ui511pLr7tt/4NYl+zLpk18Xuzl9vHFef7udNfDwTZggQIECAQAkBb+IrpCnTOSge+4p179ix6FkKl3TmN6+dcebHrwlkzkusXXLdO54/b+LtRBkJECBAgEAxAUW8WMKES4AAAQIEmoAi3iSMBAgQIECgmIAiXixhwiVAgAABAk1AEW8SRgIECBAgUExAES+WMOESIECAAIEmoIg3CSMBAgQIECgmoIgXS5hwCRAgQIBAE/j61SL0u10Y/07gdrtNl8tlOp1O0+FwmI7H48ONonVi/ETjgUc/S6+LZ53P52m32z167O/WjrFAfCMTv9Eke07jT/Ljlz0vS6971/OnY9v4mfrxzH6/f7hH663+rBPR0usiqPgHhvj69GSd+fVu7Ypfk+jHrEt2Xezu89sbx9Wn+/nP6eOZMEOAAAECBEoIKOIl0iRIAgQIECAwCijio4kZAgQIECBQQkARL5EmQRIgQIAAgVFAER9NzBAgQIAAgRICiniJNAmSAAECBAiMAor4aGKGAAECBAiUEPA98RXS1L63OLf19Xqdu9XNL70uNo8GCuLrmKesM7/erV3xaxL9mHXJrovdfX5747j6dD9v4uOZMEOAAAECBEoIeBNfIU3POrG1R75iXbRSfcVz4++cea742ukYR36jScxkXLLrnL8/G/P7mcuaft7E53PjDgECBAgQ2LSAIr7p9AiOAAECBAjMCyji8zbuECBAgACBTQso4ptOj+AIECBAgMC8gCI+b+MOAQIECBDYtIAivun0CI4AAQIECMwLKOLzNu4QIECAAIFNC/ie+Arp0RGtR/30jkq9xv0q65JdFzvr6HX3bb/xaxL9mHXJrovdnb/eOK7W9vMmPpqbIUCAAAECJQS8ia+QpiU7SEV4S+6nI9V8wjPO/Pg1gcx5ibVLrnP+mv44Zpzf0c+b+HgWzBAgQIAAgRICiniJNAmSAAECBAiMAor4aGKGAAECBAiUEFDES6RJkAQIECBAYBRQxEcTMwQIECBAoISAIl4iTYIkQIAAAQKjgCI+mpghQIAAAQIlBHxPfIU06djWo67dsah/2v0q+9zsuthZR6q7b/uNX5Pox6xLdl3s7vz1xnH16X7exMczYYYAAQIECJQQ8Ca+QpoynYPisa9Y944di56lcElnfvPaGWd+/JpA5rzE2iXXveP58ybeTpSRAAECBAgUE1DEiyVMuAQIECBAoAko4k3CSIAAAQIEigko4sUSJlwCBAgQINAEFPEmYSRAgAABAsUEFPFiCRMuAQIECBBoAop4kzASIECAAIFiAop4sYQJlwABAgQINIGvXy1Cv9uF8e8EbrfbdLlcptPpNB0Oh+l4PD7cKFonxk80Hnj0s/S6eNb5fJ52u92jx/5u7RgLxDcy8RtNsuc0/iQ/ftnzsvS6dz1/OraNn6kfz+z3+4d7tN7qzzoRLb0ugop/YIivT0/WmV/v1q74NYl+zLpk18XuPr+9cVx9up//nD6eCTMECBAgQKCEgCJeIk2CJECAAAECo4AiPpqYIUCAAAECJQQU8RJpEiQBAgQIEBgFFPHRxAwBAgQIECghoIiXSJMgCRAgQIDAKKCIjyZmCBAgQIBACQHfE18hTe17i3NbX6/XuVvd/NLrYvNooCC+jnnKOvPr3doVvybRj1mX7LrY3ee3N46rT/fzJj6eCTMECBAgQKCEgDfxFdL0rBNbe+Qr1kUr1Vc8N/7OmeeKr52OceQ3msRMxiW7zvn7szG/n7ms6edNfD437hAgQIAAgU0LKOKbTo/gCBAgQIDAvIAiPm/jDgECBAgQ2LSAIr7p9AiOAAECBAjMCyji8zbuECBAgACBTQso4ptOj+AIECBAgMC8gCI+b+MOAQIECBDYtIDvia+QHh3RetRP76jUa9yvsi7ZdbGzjl533/YbvybRj1mX7LrY3fnrjeNqbT9v4qO5GQIECBAgUELAm/gKaVqyg1SEt+R+OlLNJzzjzI9fE8icl1i75Drnr+mPY8b5Hf28iY9nwQwBAgQIECghoIiXSJMgCRAgQIDAKKCIjyZmCBAgQIBACQFFvESaBEmAAAECBEYBRXw0MUOAAAECBEoIKOIl0iRIAgQIECAwCijio4kZAgQIECBQQsD3xFdIk45tPeraHYv6p92vss/NrouddaS6+7bf+DWJfsy6ZNfF7s5fbxxXn+7nTXw8E2YIECBAgEAJAW/iK6Qp0zkoHvuKde/YsehZCpd05jevnXHmx68JZM5LrF1y3TueP2/i7UQZCRAgQIBAMQFFvFjChEuAAAECBJqAIt4kjAQIECBAoJiAIl4sYcIlQIAAAQJNQBFvEkYCBAgQIFBMQBEvljDhEiBAgACBJqCINwkjAQIECBAoJqCIF0uYcAkQIECAQBP4+tUi9LtdGP9O4Ha7TZfLZTqdTtPhcJiOx+PDjaJ1YvxE44FHP0uvi2edz+dpt9s9euzv1o6xQHwjE7/RJHtO40/y45c9L0uve9fzp2Pb+Jn68cx+v3+4R+ut/qwT0dLrIqj4B4b4+vRknfn1bu2KX5Pox6xLdl3s7vPbG8fVp/v5z+njmTBDgAABAgRKCCjiJdIkSAIECBAgMAoo4qOJGQIECBAgUEJAES+RJkESIECAAIFRQBEfTcwQIECAAIESAop4iTQJkgABAgQIjAKK+GhihgABAgQIlBDwPfEV0tS+tzi39fV6nbvVzS+9LjaPBgri65inrDO/3q1d8WsS/Zh1ya6L3X1+e+O4+nQ/b+LjmTBDgAABAgRKCHgTXyFNzzqxtUe+Yl20Un3Fc+PvnHmu+NrpGEd+o0nMZFyy65y/Pxvz+5nLmn7exOdz4w4BAgQIENi0gCK+6fQIjgABAgQIzAso4vM27hAgQIAAgU0LKOKbTo/gCBAgQIDAvIAiPm/jDgECBAgQ2LSAIr7p9AiOAAECBAjMCyji8zbuECBAgACBTQv4nvgK6dERrUf99I5Kvcb9KuuSXRc76+h1922/8WsS/Zh1ya6L3Z2/3jiu1vbzJj6amyFAgAABAiUEvImvkKYlO0hFeEvupyPVfMIzzvz4NYHMeYm1S65z/pr+OGac39HPm/h4FswQIECAAIESAop4iTQJkgABAgQIjAKK+GhihgABAgQIlBBQxEukSZAECBAgQGAUUMRHEzMECBAgQKCEgCJeIk2CJECAAAECo4AiPpqYIUCAAAECJQR8T3yFNOnY1qOu3bGof9r9Kvvc7LrYWUequ2/7jV+T6MesS3Zd7O789cZx9el+3sTHM2GGAAECBAiUEPAmvkKaMp2D4rGvWPeOHYuepXBJZ37z2hlnfvyaQOa8xNol173j+fMm3k6UkQABAgQIFBNQxIslTLgECBAgQKAJKOJNwkiAAAECBIoJKOLFEiZcAgQIECDQBBTxJmEkQIAAAQLFBBTxYgkTLgECBAgQaAKKeJMwEiBAgACBYgKKeLGECZcAAQIECDSBr18tQr/bhfHvBG6323S5XKbT6TQdDofpeDw+3ChaJ8ZPNB549LP0unjW+Xyedrvdo8f+bu0YC8Q3MvEbTbLnNP4kP37Z87L0unc9fzq2jZ+pH8/s9/uHe7Te6s86ES29LoKKf2CIr09P1plf79au+DWJfsy6ZNfF7j6/vXFcfbqf/5w+ngkzBAgQIECghIAiXiJNgiRAgAABAqOAIj6amCFAgAABAiUEFPESaRIkAQIECBAYBRTx0cQMAQIECBAoIaCIl0iTIAkQIECAwCigiI8mZggQIECAQAkB3xNfIU3te4tzW1+v17lb3fzS62LzaKAgvo55yjrz693aFb8m0Y9Zl+y62N3ntzeOq0/38yY+ngkzBAgQIECghIA38RXS9KwTW3vkK9ZFK9VXPDf+zpnniq+djnHkN5rETMYlu875+7Mxv5+5rOnnTXw+N+4QIECAAIFNCyjim06P4AgQIECAwLyAIj5v4w4BAgQIENi0gCK+6fQIjgABAgQIzAso4vM27hAgQIAAgU0LKOKbTo/gCBAgQIDAvIAiPm/jDgECBAgQ2LSA74mvkB4d0XrUT++o1Gvcr7Iu2XWxs45ed9/2G78m0Y9Zl+y62N35643jam0/b+KjuRkCBAgQIFBCwJv4CmlasoNUhLfkfjpSzSc848yPXxPInJdYu+Q656/pj2PG+R39vImPZ8EMAQIECBAoIaCIl0iTIAkQIECAwCigiI8mZggQIECAQAkBRbxEmgRJgAABAgRGAUV8NDFDgAABAgRKCCjiJdIkSAIECBAgMAoo4qOJGQIECBAgUELA98RXSJOObT3q2h2L+qfdr7LPza6LnXWkuvu23/g1iX7MumTXxe7OX28cV5/u5018PBNmCBAgQIBACQFv4iukKdM5KB77inXv2LHoWQqXdOY3r51x5sevCWTOS6xdct07nj9v4u1EGQkQIECAQDEBRbxYwoRLgAABAgSagCLeJIwECBAgQKCYgCJeLGHCJUCAAAECTUARbxJGAgQIECBQTEARL5Yw4RIgQIAAgSagiDcJIwECBAgQKCagiBdLmHAJECBAgEAT+PrVIvS7XRj/TuB2u02Xy2U6nU7T4XCYjsfjw42idWL8ROOBRz9Lr4tnnc/nabfbPXrs79aOsUB8IxO/0SR7TuNP8uOXPS9Lr3vX86dj2/iZ+vHMfr9/uEfrrf6sE9HS6yKo+AeG+Pr0ZJ359W7til+T6MesS3Zd7O7z2xvH1af7+c/p45kwQ4AAAQIESggo4iXSJEgCBAgQIDAKKOKjiRkCBAgQIFBCQBEvkSZBEiBAgACBUUARH03MECBAgACBEgKKeIk0CZIAAQIECIwCivhoYoYAAQIECJQQ8D3xFdLUvrc4t/X1ep271c0vvS42jwYK4uuYp6wzv96tXfFrEv2Ydcmui919fnvjuPp0P2/i45kwQ4AAAQIESgh4E18hTc86sbVHvmJdtFJ9xXPj75x5rvja6RhHfqNJzGRcsuucvz8b8/uZy5p+3sTnc+MOAQIECBDYtIAivun0CI4AAQIECMwLKOLzNu4QIECAAIFNCyjim06P4AgQIECAwLyAIj5v4w4BAgQIENi0gCK+6fQIjgABAgQIzAso4vM27hAgQIAAgU0L+J74CunREa1H/fSOSr3G/Srrkl0XO+vodfdtv/FrEv2Ydcmui92dv944rtb28yY+mpshQIAAAQIlBLyJr5CmJTtIRXhL7qcj1XzCM878+DWBzHmJtUuuc/6a/jhmnN/Rz5v4eBbMECBAgACBEgKKeIk0CZIAAQIECIwCivhoYoYAAQIECJQQUMRLpEmQBAgQIEBgFFDERxMzBAgQIECghIAiXiJNgiRAgAABAqOAIj6amCFAgAABAiUEfE98hTTp2Najrt2xqH/a/Sr73Oy62FlHqrtv+41fk+jHrEt2Xezu/PXGcfXpft7ExzNhhgABAgQIlBDwJr5CmjKdg+Kxr1j3jh2LnqVwSWd+89oZZ378mkDmvMTaJde94/nzJt5OlJEAAQIECBQTUMSLJUy4BAgQIECgCSjiTcJIgAABAgSKCSjixRImXAIECBAg0AQU8SZhJECAAAECxQQU8WIJEy4BAgQIEGgCiniTMBIgQIAAgWICinixhAmXAAECBAg0ga9fLUK/24Xx7wRut9t0uVym0+k0HQ6H6Xg8PtwoWifGTzQeePSz9Lp41vl8nna73aPH/m7tGAvENzLxG02y5zT+JD9+2fOy9Lp3PX86to2fqR/P7Pf7h3u03urPOhEtvS6Cin9giK9PT9aZX+/Wrvg1iX7MumTXxe4+v71xXH26n/+cPp4JMwQIECBAoISAIl4iTYIkQIAAAQKjwP8B1NxAcN72b3EAAAAASUVORK5CYII=;" vertex="1" parent="1">
          <mxGeometry x="290" y="290" width="497" height="359" as="geometry" />
        </mxCell>
      </root>
    </mxGraphModel>
  </diagram>
</mxfile>
